<svg xmlns="http://www.w3.org/2000/svg" version="1.1" xmlns:xlink="http://www.w3.org/1999/xlink" xmlns:svgjs="http://svgjs.dev/svgjs" width="2000" height="303" viewBox="0 0 2000 303"><g transform="matrix(1,0,0,1,-1.2121212121212466,-1.049616031289844)"><svg viewBox="0 0 396 60" data-background-color="#ffffff" preserveAspectRatio="xMidYMid meet" height="303" width="2000" xmlns="http://www.w3.org/2000/svg" xmlns:xlink="http://www.w3.org/1999/xlink"><g id="tight-bounds" transform="matrix(1,0,0,1,0.2400000000000091,0.20784475867125707)"><svg viewBox="0 0 395.52 59.58431048265747" height="59.58431048265747" width="395.52"><g><svg viewBox="0 0 486.09001928212535 73.22850584402082" height="59.58431048265747" width="395.52"><g transform="matrix(1,0,0,1,0,3.497164533795498)"><svg viewBox="0 0 395.52 66.23417677642982" height="66.23417677642982" width="395.52"><g id="textblocktransform"><svg viewBox="0 0 395.52 66.23417677642982" height="66.23417677642982" width="395.52" id="textblock"><g><svg viewBox="0 0 395.52 66.23417677642982" height="66.23417677642982" width="395.52"><g transform="matrix(1,0,0,1,0,0)"><svg width="395.52" viewBox="2.9 -37.95 230.54 38.650000000000006" height="66.23417677642982" data-palette-color="#111111"><g class="wordmark-text-0" data-fill-palette-color="primary" id="text-0"><path d="M38-36L36.6-28.2 24.3-28.2 19.35 0 10.3 0 15.25-28.2 2.9-28.2 4.3-36 38-36ZM60.15-18.95L60.15-18.95Q60.15-17.25 59.57-15.65 59-14.05 58.45-13.3L58.45-13.3 57.9-12.6 50.35-12.6Q51.6-13.75 51.6-15.45L51.6-15.45Q51.6-16.35 51.02-16.93 50.45-17.5 49.45-17.5L49.45-17.5Q47.75-17.5 46.5-15.8L46.5-15.8 43.7 0 35.2 0 39.45-24.05 47.35-24.05 46.75-20.7Q49.6-24.75 53.65-24.75L53.65-24.75Q56.9-24.75 58.52-23.2 60.15-21.65 60.15-18.95ZM85.05-7.7L85.05-7.7Q85.05-6.4 86.37-6.4 87.7-6.4 88.6-6.9L88.6-6.9 88.35-1.25Q85.95 0.7 82.95 0.7L82.95 0.7Q77.45 0.7 76.85-3.3L76.85-3.3Q74.35 0.7 69.5 0.7L69.5 0.7Q61.3 0.7 61.3-6.35L61.3-6.35Q61.3-7.55 61.55-9L61.55-9 62.6-14.85Q63.4-19.35 66.27-22.03 69.15-24.7 73.77-24.7 78.4-24.7 80.05-22.55L80.05-22.55 80.3-24.05 87.9-24.05 85.1-8.3Q85.05-8 85.05-7.7ZM70.9-13.85L70.25-10.1Q70.15-9.65 70.15-8.85 70.15-8.05 70.9-7.28 71.65-6.5 73.42-6.5 75.2-6.5 76.5-7.9L76.5-7.9 78-16.3Q77.45-17.55 75.4-17.55L75.4-17.55Q71.55-17.55 70.9-13.85L70.9-13.85ZM108.54-24.05L117.04-24.05Q117.74-21.95 117.74-18.48 117.74-15 116.89-11.8 116.04-8.6 114.32-5.73 112.59-2.85 109.52-1.07 106.44 0.7 102.44 0.7L102.44 0.7Q96.19 0.7 93.79-1.85L93.79-1.85Q92.19-3.55 92.19-7.05L92.19-7.05Q92.19-8.7 92.59-10.8L92.59-10.8 94.94-24.05 103.44-24.05 101.09-10.75Q100.94-10 100.94-9.4L100.94-9.4Q100.94-6.55 103.89-6.55L103.89-6.55Q109.09-6.55 109.09-17.45L109.09-17.45Q109.09-20 108.69-23.1L108.69-23.1 108.54-24.05ZM130.64 0.7L130.64 0.7Q120.24 0.7 120.24-6.5L120.24-6.5Q120.24-7.5 120.44-8.65L120.44-8.65 121.49-14.85Q122.34-19.65 125.92-22.23 129.49-24.8 135.39-24.8L135.39-24.8Q145.44-24.8 145.44-17.2L145.44-17.2Q145.44-16.1 145.24-14.8L145.24-14.8 144.64-11.25 129.39-11.25 129.19-10.1Q129.09-9.5 129.09-9L129.09-9Q129.09-6.25 132.34-6.25L132.34-6.25Q133.54-6.25 134.39-7 135.24-7.75 135.39-8.75L135.39-8.75 143.69-8.65Q142.04 0.7 130.64 0.7ZM129.89-14.3L136.64-14.3Q136.84-15.15 136.84-15.88 136.84-16.6 136.19-17.35 135.54-18.1 134.12-18.1 132.69-18.1 131.52-17.15 130.34-16.2 129.89-14.3L129.89-14.3ZM157.44-7.7L157.44-7.7Q157.44-6.4 158.76-6.4 160.09-6.4 160.99-6.9L160.99-6.9 160.74-1.25Q158.34 0.7 155.34 0.7L155.34 0.7Q150.79 0.7 149.44-1.4L149.44-1.4Q148.59-2.75 148.59-4.35 148.59-5.95 148.79-7.15L148.79-7.15 154.24-37.95 162.74-37.95 157.49-8.3Q157.44-8 157.44-7.7Z" fill="#111111" data-fill-palette-color="primary"></path><path d="M188.34 0.7L188.34 0.7Q181.19 0.7 178.44-2.4L178.44-2.4Q176.54-4.6 176.54-8.55L176.54-8.55Q176.54-10.25 176.89-12.2L176.89-12.2 178.94-23.7Q181.19-36.35 195.19-36.35L195.19-36.35Q200.99-36.35 203.99-33.88 206.99-31.4 206.99-27.1L206.99-27.1Q206.99-25.1 206.41-23.13 205.84-21.15 205.29-20.2L205.29-20.2 204.74-19.2 195.89-19.2Q197.54-21.1 197.54-24.6L197.54-24.6Q197.54-26.45 196.59-27.53 195.64-28.6 193.79-28.6L193.79-28.6Q188.74-28.6 187.79-23L187.79-23 186.04-12.9Q185.79-11.6 185.79-10.35L185.79-10.35Q185.79-7.05 189.74-7.05L189.74-7.05Q194.49-7.05 195.44-12.4L195.44-12.4 204.44-12.4 204.19-10.95Q202.19 0.7 188.34 0.7ZM223.14-24.75L223.14-24.75Q228.54-24.75 231.29-22.4L231.29-22.4Q233.44-20.55 233.44-17.25L233.44-17.25Q233.44-16.15 233.19-14.85L233.19-14.85 232.14-9Q231.19-3.7 227.71-1.5 224.24 0.7 218.44 0.7 212.64 0.7 209.94-1.5L209.94-1.5Q207.94-3.15 207.94-6.45L207.94-6.45Q207.94-7.6 208.19-9L208.19-9 209.24-14.85Q210.99-24.75 223.14-24.75ZM223.84-10.1L224.49-13.85Q224.59-14.35 224.59-15.13 224.59-15.9 223.94-16.85 223.29-17.8 221.66-17.8 220.04-17.8 218.94-16.73 217.84-15.65 217.54-13.85L217.54-13.85 216.89-10.1Q216.79-9.6 216.79-8.83 216.79-8.05 217.44-7.15 218.09-6.25 219.71-6.25 221.34-6.25 222.44-7.38 223.54-8.5 223.84-10.1L223.84-10.1Z" fill="#8abe53" data-fill-palette-color="secondary"></path></g></svg></g></svg></g></svg></g></svg></g><g transform="matrix(1,0,0,1,411.15629951667245,0)"><svg viewBox="0 0 74.93371976545292 73.22850584402082" height="73.22850584402082" width="74.93371976545292"><g><svg xmlns="http://www.w3.org/2000/svg" xmlns:xlink="http://www.w3.org/1999/xlink" version="1.0" x="0" y="0" viewBox="1.116 1.6570000000000018 47.766999999999996 46.67999999999999" enable-background="new 0 0 50 50" xml:space="preserve" height="73.22850584402082" width="74.93371976545292" class="icon-icon-0" data-fill-palette-color="accent" id="icon-0"><g fill="#8abe53" data-fill-palette-color="accent"><g fill="#8abe53" data-fill-palette-color="accent"><path fill="none" d="M26 26v9.172c3-0.275 5.82-1.163 8.643-2.305C35.404 30.368 35.847 28 35.847 26H26z"></path><path fill="none" d="M38.019 26c0 2-0.314 3.585-0.95 5.84 3.634-1.682 6.874-3.646 9.056-5.072C46.136 26.513 46.163 26 46.163 26H38.019z"></path><path fill="none" d="M37.888 24h8.275c0-2-0.457-4.783-1.43-7.247-0.973-2.467-2.268-4.435-3.893-5.992-1.133 0.813-2.92 1.767-5.285 2.908C37.11 17.462 37.888 21 37.888 24z"></path><path fill="none" d="M28.093 4.127C27.929 4.03 27.511 4 26.858 4H26v10.111c3-0.226 5.703-0.738 6.965-1.556C31.605 9.247 30.005 6.466 28.093 4.127z"></path><path fill="none" d="M39.479 9.312c-2.693-2.238-5.611-3.796-8.691-4.702 1.584 2.038 2.982 4.506 4.15 7.394C37.47 10.674 38.958 9.765 39.479 9.312z"></path><path fill="none" d="M38.02 42.071c-1.94 1.366-3.972 2.321-6.016 2.954C34.329 44.423 36.327 43.43 38.02 42.071z"></path><path fill="none" d="M24 26h-9.663c0 1 0.061 1.563 0.231 2.583L24 29.986V26z"></path><path fill="none" d="M4.082 26c0 0 0.032 0.692 0.058 1.041l8.389 1.232C12.418 27.45 12.358 27 12.358 26H4.082z"></path><path fill="none" d="M18.266 33.789C19.962 34.791 22 35.225 24 35.258v-5.084L18.266 33.789z"></path><path fill="none" d="M35.13 18.699c-0.484-2.11-1.03-3.562-1.483-4.307C30.598 15.627 28 16.253 26 16.253V24h9.847C35.847 22 35.585 20.774 35.13 18.699z"></path><path fill="none" d="M19.14 4.738c-3.537 0.904-6.328 2.432-8.436 4.573 0.616 0.549 2.143 1.395 4.605 2.561C16.315 9.312 17.582 6.94 19.14 4.738z"></path><path fill="none" d="M13.203 18.34c0.517-2.139 1.037-3.683 1.555-4.656-0.745-0.359-1.459-0.68-2.207-1.005-0.71-0.323-1.36-0.646-1.945-0.971-0.581-0.324-1.002-0.634-1.331-0.958C6.228 13.928 4.443 18 3.927 24h8.432C12.391 22 12.681 20.479 13.203 18.34z"></path><path fill="none" d="M26 46.226l2.166-0.128c0.064-0.081 0.108-0.182 0.177-0.271C27.563 45.939 27 46.016 26 46.059V46.226z"></path><path fill="none" d="M21.891 46.098L24 46.226V46.1c-1-0.012-1.481-0.053-2.204-0.115C21.822 46.021 21.865 46.062 21.891 46.098z"></path><path fill="none" d="M14.337 24H24v-7.747c-2 0-4.378-0.637-7.558-1.87C15.018 17.787 14.337 21 14.337 24z"></path><path fill="none" d="M20.985 13.693C22.25 13.982 23 14.111 24 14.111V4h-0.675c-0.293 0-0.521-0.006-0.749 0.03-0.194 0.029-0.421 0.062-0.65 0.094-1.945 2.66-3.55 5.51-4.782 8.561C18.439 13.079 19.721 13.433 20.985 13.693z"></path><path fill="#8abe53" d="M38.02 42.071c-1.692 1.358-3.69 2.352-6.016 2.954-1.194 0.369-2.392 0.628-3.576 0.801-0.067 0.09-2.407 0.232-2.407 0.232-1 0.039-1 0.052-2.001 0.041 0 0-2.157-0.078-2.184-0.115-6.396-0.561-11.267-2.897-11.267-2.897l-0.027 0.075c4.421 3.444 9.295 5.175 14.599 5.175 4.019 0 7.815-0.942 11.353-2.824 3.533-1.915 6.39-4.639 8.599-8.271 1.763-2.923 2.788-6.239 3.099-9.95C45.677 34.603 42.048 39.234 38.02 42.071z" data-fill-palette-color="accent"></path><path fill="#8abe53" d="M4.082 26h8.276c0 1 0.06 1.454 0.17 2.277l2.075 0.303c-0.171-1.02-0.267-1.58-0.267-2.58H24v3.986l0.242 0.035L24 30.174v5.084c1 0.011 1-0.018 2-0.086V26h9.847c0 2-0.387 4.368-1.146 6.867 0.803-0.324 1.594-0.672 2.368-1.031 0.636-2.254 0.95-3.836 0.95-5.836h8.145c0 0-0.027 0.517-0.039 0.771 0.938-0.612 1.674-1.118 2.164-1.466 0.002-0.22 0.016-0.432 0.014-0.653-0.063-4.603-1.168-8.628-3.34-12.1-2.143-3.47-4.994-6.165-8.531-8.039-3.539-1.915-7.27-2.856-11.127-2.856-2.66 0-5.323 0.484-8.015 1.426-2.691 0.971-5.223 2.432-7.559 4.381-2.366 1.98-4.25 4.31-5.648 7.07-1.426 2.724-2.202 5.904-2.334 9.505-0.016 0.911 0.007 1.799 0.066 2.666l2.325 0.336C4.114 26.692 4.082 26 4.082 26zM44.733 16.753c0.973 2.464 1.43 5.247 1.43 7.247h-8.275c0-3-0.777-6.533-2.332-10.326 2.365-1.142 4.152-2.111 5.285-2.924C42.466 12.308 43.761 14.286 44.733 16.753zM39.479 9.312c-0.521 0.453-2.01 1.362-4.541 2.691-1.168-2.888-2.566-5.355-4.15-7.394C33.868 5.516 36.786 7.073 39.479 9.312zM26 4h0.858c0.652 0 1.07 0.03 1.234 0.127 1.912 2.339 3.513 5.12 4.872 8.429C31.703 13.373 29 13.886 26 14.111V4zM26 16.253c2 0 4.598-0.616 7.646-1.851 0.453 0.745 0.971 2.187 1.455 4.297C35.557 20.774 35.847 22 35.847 24H26V16.253zM24 24h-9.663c0-3 0.681-6.213 2.105-9.617 3.18 1.233 5.558 1.87 7.558 1.87V24zM22.576 4.03C22.805 3.994 23.032 4 23.325 4H24v10.111c-1 0-1.75-0.129-3.015-0.418-1.264-0.261-2.545-0.616-3.841-1.01 1.232-3.051 2.828-5.899 4.773-8.56C22.146 4.092 22.382 4.06 22.576 4.03zM19.14 4.738c-1.558 2.202-2.824 4.573-3.83 7.134-2.463-1.166-3.989-2.012-4.605-2.561C12.812 7.17 15.603 5.643 19.14 4.738zM9.274 10.75c0.329 0.324 0.75 0.627 1.331 0.951 0.585 0.325 1.235 0.654 1.945 0.978 0.748 0.325 1.462 0.652 2.207 1.013-0.518 0.973-1.038 2.509-1.555 4.648C12.681 20.478 12.391 22 12.358 24H3.927C4.443 18 6.228 13.929 9.274 10.75z" data-fill-palette-color="accent"></path></g><path fill="#8abe53" d="M32.507 3.195c0 1.966-3.324 3.561-7.426 3.561s-7.427-1.595-7.427-3.561c3.459-0.916 3.53-0.813 7.632-0.813C29.386 2.382 27.216 3.094 32.507 3.195z" data-fill-palette-color="accent"></path><g fill="#8abe53" data-fill-palette-color="accent"><path fill="#8abe53" d="M14.631 33.999l7.066-3.067L1.116 27.43l7.217 19.785 1.326-6.839c0 0 22.797 14.882 38.9-13.301l0.324-2.162C43.483 30.109 28.394 42.477 14.631 33.999z" data-fill-palette-color="accent"></path></g></g></svg></g></svg></g></svg></g><defs></defs></svg><rect width="395.52" height="59.58431048265747" fill="none" stroke="none" visibility="hidden"></rect></g></svg></g></svg>